<?xml version="1.0" encoding="UTF-8"?>
<svg version="1.1" xmlns="http://www.w3.org/2000/svg" width="93" height="69">
<path d="M0 0 C0 3 0 3 -2.5 5.6875 C-3.325 6.450625 -4.15 7.21375 -5 8 C-1.535 9.485 -1.535 9.485 2 11 C2 11.66 2 12.32 2 13 C-5.4422658 13.36601307 -5.4422658 13.36601307 -8 11.6875 C-9 10 -9 10 -9 7 C-9.99 7.495 -9.99 7.495 -11 8 C-10.87822312 9.91466367 -10.87822312 9.91466367 -10 12 C-7.52066803 13.77148372 -7.52066803 13.77148372 -5 15 C-5.33 16.65 -5.66 18.3 -6 20 C-6.66 20 -7.32 20 -8 20 C-8 20.66 -8 21.32 -8 22 C-8.99 22.66 -9.98 23.32 -11 24 C-10.34 24.99 -9.68 25.98 -9 27 C-8.39796541 30.09121605 -8.39890762 32.90789414 -9 36 C-11.64617451 39.32468079 -13.1061475 40.6278746 -17.2265625 41.4375 C-21.31580938 41.65632258 -23.4744748 41.32845325 -27 39.125 C-29.633595 36.32680531 -29.97083649 35.52494321 -30.1875 31.625 C-30.00972328 28.18798349 -29.83591131 26.78572032 -28 24 C-26.125 23.05078125 -26.125 23.05078125 -24 22.3125 C-20.8397249 20.91088343 -20.8397249 20.91088343 -19.2421875 17.9921875 C-18.99467075 16.4386249 -18.76322138 14.88242783 -18.546875 13.32421875 C-17.62103885 9.3894151 -15.11555159 6.50436683 -12 4 C-9.96484375 3.41015625 -9.96484375 3.41015625 -8 3 C-7.154375 2.484375 -6.30875 1.96875 -5.4375 1.4375 C-3 0 -3 0 0 0 Z M-25 28 C-25.50010524 30.95769177 -25.50010524 30.95769177 -25 34 C-23.48105194 36.09764165 -23.48105194 36.09764165 -21 37 C-17.87319901 37.00674926 -17.87319901 37.00674926 -15 36 C-12.70362221 33.24104365 -12.70362221 33.24104365 -13.25 30.4375 C-13.83808052 27.84999433 -13.83808052 27.84999433 -16 26 C-21.02999574 25.41355715 -21.02999574 25.41355715 -25 28 Z " fill="#020202" transform="translate(57,16)"/>
<path d="M0 0 C6.20877469 -0.37252648 9.70605784 0.91383663 14.875 4.1875 C16.77925392 7.25546464 16.50895793 10.54884692 16 14 C14.62758625 16.7448275 13.50012054 17.70581145 10.875 19.25 C8.1540975 19.95980065 6.10774318 20.07711837 3.3203125 20.046875 C2.51094238 20.04010742 1.70157227 20.03333984 0.86767578 20.02636719 C-0.05682373 20.01331543 -0.05682373 20.01331543 -1 20 C-1.02689449 17.04160645 -1.04678741 14.08345573 -1.0625 11.125 C-1.07087891 10.28324219 -1.07925781 9.44148438 -1.08789062 8.57421875 C-1.09111328 7.76855469 -1.09433594 6.96289062 -1.09765625 6.1328125 C-1.10289307 5.38918457 -1.10812988 4.64555664 -1.11352539 3.87939453 C-1 2 -1 2 0 0 Z M4 5 C4 8.3 4 11.6 4 15 C7.81813447 14.72459296 7.81813447 14.72459296 11 13 C11.25005386 10.04182893 11.25005386 10.04182893 11 7 C10.34 6.34 9.68 5.68 9 5 C7.35 5 5.7 5 4 5 Z " fill="#010101" transform="translate(10,37)"/>
<path d="M0 0 C1.49821059 3.37097383 2 5.20442119 2 9 C1.3709375 9.11214844 0.741875 9.22429688 0.09375 9.33984375 C-7.63220366 11.12007102 -11.30928605 14.75008225 -16 21 C-16.99 20.67 -17.98 20.34 -19 20 C-19 17.03 -19 14.06 -19 11 C-18.34 11 -17.68 11 -17 11 C-16.7834375 9.8553125 -16.7834375 9.8553125 -16.5625 8.6875 C-16 6 -16 6 -15 3 C-12.0625 1.875 -12.0625 1.875 -9 1 C-6.04335481 -0.4783226 -3.25770263 -0.06032783 0 0 Z " fill="#010101" transform="translate(46,9)"/>
<path d="M0 0 C4.29 0 8.58 0 13 0 C13 4.39594806 12.28351372 5.63443662 10 9.25 C9.443125 10.14203125 8.88625 11.0340625 8.3125 11.953125 C7.879375 12.62859375 7.44625 13.3040625 7 14 C9.97 14.495 9.97 14.495 13 15 C13 16.65 13 18.3 13 20 C8.38 20 3.76 20 -1 20 C-0.10223293 15.51116463 0.71909549 13.42697528 3.0625 9.6875 C3.61035156 8.80449219 4.15820312 7.92148437 4.72265625 7.01171875 C5.35494141 6.01591797 5.35494141 6.01591797 6 5 C4.02 5 2.04 5 0 5 C0 3.35 0 1.7 0 0 Z " fill="#010101" transform="translate(65,37)"/>
<path d="M0 0 C1.32 0 2.64 0 4 0 C4 4.95 4 9.9 4 15 C5.98 15 7.96 15 10 15 C10 16.65 10 18.3 10 20 C6.7 20 3.4 20 0 20 C-1.57924842 16.84150315 -1.14316514 13.4634872 -1.125 10 C-1.12886719 9.26265625 -1.13273437 8.5253125 -1.13671875 7.765625 C-1.1266598 2.2533196 -1.1266598 2.2533196 0 0 Z " fill="#040404" transform="translate(51,37)"/>
</svg>
